========================== BROKEN BY 12 STONES ================================

========================== TRIBUTE TO ROCK STARS =============================

Format                           : MPEG-PS
File size                        : 32.4 MiB
Duration                         : 3mn 14s
Overall bit rate                 : 1 396 Kbps
Writing library                  : encoded by TMPGEnc (ver. 2.51.33.127)

Video
ID                               : 224 (0xE0)
Format                           : MPEG Video
Format version                   : Version 1
Format settings, BVOP            : Yes
Format settings, Matrix          : Default
Duration                         : 3mn 14s
Bit rate mode                    : Constant
Bit rate                         : 1 150 Kbps
Width                            : 352 pixels
Height                           : 240 pixels
Display aspect ratio             : 4:3
Frame rate                       : 29.970 fps
Standard                         : NTSC
Color space                      : YUV
Bit depth                        : 8 bits
Scan type                        : Progressive
Bits/(Pixel*Frame)               : 0.454
Stream size                      : 26.6 MiB (82%)
Writing library                  : TMPGEnc 2.51.33.127

Audio
ID                               : 192 (0xC0)
Format                           : MPEG Audio
Format version                   : Version 1
Format profile                   : Layer 2
Duration                         : 3mn 14s
Bit rate mode                    : Constant
Bit rate                         : 224 Kbps
Channel(s)                       : 2 channels
Sampling rate                    : 44.1 KHz
Stream size                      : 5.20 MiB (16%)

===========================================================================

                        http://bayimg.com/PaHdFaaDL

===========================================================================

===========================================================================
  
I URGE TO ALL D/L PLEASE HIT ON QUALITY +/- AND LEAVE COMMENTS IF POSSIBLE 

=============================================================================

========================== HAUNTING SUMMER ==================================
